<svg width="17" height="16" viewBox="0 0 17 16" fill="none" xmlns="http://www.w3.org/2000/svg">
<path d="M2.65686 2.34314C1.53804 3.46196 0.77611 4.88743 0.467428 6.43928C0.158746 7.99112 0.317173 9.59966 0.922673 11.0615C1.52817 12.5233 2.55355 13.7727 3.86915 14.6518C5.18474 15.5308 6.73146 16 8.31371 16C9.89596 16 11.4427 15.5308 12.7583 14.6518C14.0739 13.7727 15.0992 12.5233 15.7047 11.0615C16.3102 9.59966 16.4687 7.99112 16.16 6.43928C15.8513 4.88743 15.0894 3.46196 13.9706 2.34315C12.4683 0.846612 10.4342 0.0063518 8.31371 0.00635164C6.19322 0.00635193 4.15914 0.846613 2.65686 2.34314ZM10.9246 6.25943L9.18399 8L10.9246 9.74057C11.04 9.85597 11.1048 10.0125 11.1048 10.1757C11.1048 10.3389 11.04 10.4954 10.9246 10.6109C10.8092 10.7263 10.6526 10.7911 10.4894 10.7911C10.3262 10.7911 10.1697 10.7263 10.0543 10.6109L8.31371 8.87028L6.57314 10.6109C6.45773 10.7263 6.30121 10.7911 6.138 10.7911C5.97479 10.7911 5.81826 10.7263 5.70285 10.6109C5.58745 10.4954 5.52261 10.3389 5.52261 10.1757C5.52261 10.0125 5.58745 9.85597 5.70285 9.74057L7.44342 8L5.70285 6.25943C5.58745 6.14402 5.52261 5.9875 5.52261 5.82428C5.52261 5.66107 5.58745 5.50455 5.70285 5.38914C5.81826 5.27374 5.97479 5.2089 6.138 5.2089C6.30121 5.2089 6.45773 5.27374 6.57314 5.38914L8.31371 7.12971L10.0543 5.38914C10.1697 5.27374 10.3262 5.2089 10.4894 5.2089C10.6526 5.2089 10.8092 5.27374 10.9246 5.38914C11.04 5.50455 11.1048 5.66107 11.1048 5.82428C11.1048 5.98749 11.04 6.14402 10.9246 6.25943Z" fill="#FF5353"/>
</svg>
