<svg width="34" height="33" viewBox="0 0 34 33" fill="none" xmlns="http://www.w3.org/2000/svg">
<path d="M16.8056 0.895302C8.33962 0.895302 1.45188 7.78304 1.45188 16.2491C1.45188 24.7151 8.33962 31.6013 16.8056 31.6013C25.2717 31.6013 32.1579 24.7151 32.1579 16.2491C32.1579 7.78304 25.2717 0.895302 16.8056 0.895302ZM16.8056 32.4981C7.84668 32.4981 0.55658 25.208 0.55658 16.2491C0.55658 7.2901 7.84668 0 16.8056 0C25.7646 0 33.0547 7.2901 33.0547 16.2491C33.0547 25.208 25.7646 32.4981 16.8056 32.4981Z" fill="#5956E8"/>
<path d="M16.8057 2.87153C9.4295 2.87153 3.42816 8.87288 3.42816 16.2491C3.42816 23.6253 9.4295 29.6267 16.8057 29.6267C24.1819 29.6267 30.1833 23.6253 30.1833 16.2491C30.1833 8.87288 24.1819 2.87153 16.8057 2.87153ZM16.8057 30.522C8.93508 30.522 2.53137 24.1197 2.53137 16.2491C2.53137 8.37846 8.93508 1.97475 16.8057 1.97475C24.6764 1.97475 31.0786 8.37846 31.0786 16.2491C31.0786 24.1197 24.6764 30.522 16.8057 30.522Z" fill="#5956E8"/>
<path d="M16.8056 4.84617C10.5177 4.84617 5.40275 9.96112 5.40275 16.249C5.40275 22.5369 10.5177 27.6519 16.8056 27.6519C23.0935 27.6519 28.2084 22.5369 28.2084 16.249C28.2084 9.96112 23.0935 4.84617 16.8056 4.84617ZM16.8056 28.5472C10.0248 28.5472 4.50745 23.0298 4.50745 16.249C4.50745 9.46818 10.0248 3.95087 16.8056 3.95087C23.5864 3.95087 29.1037 9.46818 29.1037 16.249C29.1037 23.0298 23.5864 28.5472 16.8056 28.5472Z" fill="#5956E8"/>
<path d="M16.8057 6.82092C11.6076 6.82092 7.37754 11.051 7.37754 16.2491C7.37754 21.4471 11.6076 25.6772 16.8057 25.6772C22.0038 25.6772 26.2338 21.4471 26.2338 16.2491C26.2338 11.051 22.0038 6.82092 16.8057 6.82092ZM16.8057 26.5725C11.1132 26.5725 6.48224 21.9416 6.48224 16.2491C6.48224 10.5565 11.1132 5.92561 16.8057 5.92561C22.4982 5.92561 27.1291 10.5565 27.1291 16.2491C27.1291 21.9416 22.4982 26.5725 16.8057 26.5725Z" fill="#5956E8"/>
<path d="M16.8058 8.79715C12.696 8.79715 9.35382 12.1393 9.35382 16.2491C9.35382 20.3589 12.696 23.701 16.8058 23.701C20.9155 23.701 24.2577 20.3589 24.2577 16.2491C24.2577 12.1393 20.9155 8.79715 16.8058 8.79715ZM16.8058 24.5978C12.203 24.5978 8.45703 20.8518 8.45703 16.2491C8.45703 11.6449 12.203 7.90036 16.8058 7.90036C21.4085 7.90036 25.1545 11.6449 25.1545 16.2491C25.1545 20.8518 21.4085 24.5978 16.8058 24.5978Z" fill="#5956E8"/>
<path d="M16.8058 10.7718C13.7858 10.7718 11.3286 13.2291 11.3286 16.2491C11.3286 19.269 13.7858 21.7263 16.8058 21.7263C19.8258 21.7263 22.283 19.269 22.283 16.2491C22.283 13.2291 19.8258 10.7718 16.8058 10.7718ZM16.8058 22.6216C13.2914 22.6216 10.4333 19.7635 10.4333 16.2491C10.4333 12.7347 13.2914 9.87506 16.8058 9.87506C20.3202 9.87506 23.1783 12.7347 23.1783 16.2491C23.1783 19.7635 20.3202 22.6216 16.8058 22.6216Z" fill="#5956E8"/>
<path d="M16.8059 12.7465C14.8742 12.7465 13.3034 14.3174 13.3034 16.249C13.3034 18.1792 14.8742 19.7516 16.8059 19.7516C18.7376 19.7516 20.3084 18.1792 20.3084 16.249C20.3084 14.3174 18.7376 12.7465 16.8059 12.7465ZM16.8059 20.6469C14.3813 20.6469 12.4081 18.6736 12.4081 16.249C12.4081 13.8245 14.3813 11.8512 16.8059 11.8512C19.2305 11.8512 21.2037 13.8245 21.2037 16.249C21.2037 18.6736 19.2305 20.6469 16.8059 20.6469Z" fill="#5956E8"/>
<path d="M16.806 14.7213C15.9641 14.7213 15.2782 15.4072 15.2782 16.2491C15.2782 17.0909 15.9641 17.7754 16.806 17.7754C17.6478 17.7754 18.3338 17.0909 18.3338 16.2491C18.3338 15.4072 17.6478 14.7213 16.806 14.7213ZM16.806 18.6722C15.4697 18.6722 14.3829 17.5854 14.3829 16.2491C14.3829 14.9128 15.4697 13.826 16.806 13.826C18.1423 13.826 19.2291 14.9128 19.2291 16.2491C19.2291 17.5854 18.1423 18.6722 16.806 18.6722Z" fill="#5956E8"/>
</svg>
