<svg width="236" height="250" viewBox="0 0 236 250" fill="none" xmlns="http://www.w3.org/2000/svg">
<path d="M125.293 132.163C125.53 134.833 120.568 136.295 117.996 132.163C115.216 128.513 117.26 120.037 125.293 117.59C132.859 114.693 144.831 120.254 147.184 132.163C150.182 143.614 141.129 159.062 125.293 161.311C109.949 164.406 90.935 151.872 88.808 132.163C85.584 112.935 101.679 90.469 125.293 88.442C148.449 85.125 174.445 104.672 176.372 132.163C179.801 159.173 156.719 188.654 125.293 190.458C94.331 193.997 61.3299 167.432 59.6203 132.163C55.9787 97.353 86.061 60.8955 125.293 59.2948C164.03 55.5565 204.078 89.094 205.56 132.163C209.424 174.751 172.314 218.227 125.293 219.605C78.745 223.566 31.711 183.014 30.4323 132.163C26.3691 81.794 70.462 31.3086 125.293 30.1474C179.634 25.965 233.692 73.5353 234.748 132.163C239.038 190.333 187.913 247.795 125.293 248.753C63.1645 253.139 2.07818 198.591 1.24428 132.163C-3.24972 66.2161 54.8714 1.7356 125.293 1" stroke="#005DE9" stroke-linecap="round"/>
</svg>
