<svg width="143" height="18" viewBox="0 0 143 18" fill="none" xmlns="http://www.w3.org/2000/svg">
<path d="M7.03613 13.7344L10.7207 1.35938H14.3086L8.8623 17H6.49902L7.03613 13.7344ZM3.6416 1.35938L7.31543 13.7344L7.87402 17H5.48926L0.0751953 1.35938H3.6416ZM18.8418 5.37695V17H15.7373V5.37695H18.8418ZM15.5439 2.34766C15.5439 1.89648 15.7015 1.52409 16.0166 1.23047C16.3317 0.936849 16.7542 0.790039 17.2842 0.790039C17.807 0.790039 18.2259 0.936849 18.541 1.23047C18.8633 1.52409 19.0244 1.89648 19.0244 2.34766C19.0244 2.79883 18.8633 3.17122 18.541 3.46484C18.2259 3.75846 17.807 3.90527 17.2842 3.90527C16.7542 3.90527 16.3317 3.75846 16.0166 3.46484C15.7015 3.17122 15.5439 2.79883 15.5439 2.34766ZM27.6826 13.7881C27.6826 13.5661 27.6182 13.3656 27.4893 13.1865C27.3604 13.0075 27.1204 12.8428 26.7695 12.6924C26.4258 12.5348 25.9281 12.3916 25.2764 12.2627C24.6891 12.1338 24.1413 11.9727 23.6328 11.7793C23.1315 11.5788 22.6947 11.3389 22.3223 11.0596C21.957 10.7803 21.6706 10.4508 21.4629 10.0713C21.2552 9.68457 21.1514 9.24414 21.1514 8.75C21.1514 8.26302 21.2552 7.80469 21.4629 7.375C21.6777 6.94531 21.9821 6.56576 22.376 6.23633C22.777 5.89974 23.264 5.63835 23.8369 5.45215C24.417 5.25879 25.0687 5.16211 25.792 5.16211C26.8018 5.16211 27.6683 5.32324 28.3916 5.64551C29.1221 5.96777 29.6807 6.41178 30.0674 6.97754C30.4613 7.53613 30.6582 8.1735 30.6582 8.88965H27.5645C27.5645 8.58887 27.5 8.32031 27.3711 8.08398C27.2493 7.84049 27.056 7.65072 26.791 7.51465C26.5332 7.37142 26.1966 7.2998 25.7812 7.2998C25.4375 7.2998 25.1403 7.36068 24.8896 7.48242C24.639 7.59701 24.4456 7.75456 24.3096 7.95508C24.1807 8.14844 24.1162 8.36328 24.1162 8.59961C24.1162 8.77865 24.152 8.93978 24.2236 9.08301C24.3024 9.21908 24.4277 9.3444 24.5996 9.45898C24.7715 9.57357 24.9935 9.68099 25.2656 9.78125C25.5449 9.87435 25.8887 9.96029 26.2969 10.0391C27.1348 10.2109 27.8831 10.4365 28.542 10.7158C29.2008 10.988 29.7236 11.3604 30.1104 11.833C30.4971 12.2985 30.6904 12.9108 30.6904 13.6699C30.6904 14.1855 30.5758 14.6582 30.3467 15.0879C30.1175 15.5176 29.7881 15.8936 29.3584 16.2158C28.9287 16.5309 28.4131 16.778 27.8115 16.957C27.2171 17.1289 26.5475 17.2148 25.8027 17.2148C24.7214 17.2148 23.8047 17.0215 23.0527 16.6348C22.3079 16.248 21.7422 15.7575 21.3555 15.1631C20.9759 14.5615 20.7861 13.9456 20.7861 13.3154H23.7188C23.7331 13.738 23.8405 14.0781 24.041 14.3359C24.2487 14.5938 24.5101 14.7799 24.8252 14.8945C25.1475 15.0091 25.4948 15.0664 25.8672 15.0664C26.2682 15.0664 26.6012 15.0127 26.8662 14.9053C27.1312 14.7907 27.3317 14.6403 27.4678 14.4541C27.611 14.2607 27.6826 14.0387 27.6826 13.7881ZM35.9648 5.37695V17H32.8604V5.37695H35.9648ZM32.667 2.34766C32.667 1.89648 32.8245 1.52409 33.1396 1.23047C33.4548 0.936849 33.8773 0.790039 34.4072 0.790039C34.93 0.790039 35.349 0.936849 35.6641 1.23047C35.9863 1.52409 36.1475 1.89648 36.1475 2.34766C36.1475 2.79883 35.9863 3.17122 35.6641 3.46484C35.349 3.75846 34.93 3.90527 34.4072 3.90527C33.8773 3.90527 33.4548 3.75846 33.1396 3.46484C32.8245 3.17122 32.667 2.79883 32.667 2.34766ZM38.0273 11.3066V11.0811C38.0273 10.2288 38.1491 9.44466 38.3926 8.72852C38.6361 8.00521 38.9906 7.37858 39.4561 6.84863C39.9215 6.31868 40.4945 5.9069 41.1748 5.61328C41.8551 5.3125 42.6357 5.16211 43.5166 5.16211C44.3975 5.16211 45.1816 5.3125 45.8691 5.61328C46.5566 5.9069 47.1331 6.31868 47.5986 6.84863C48.0713 7.37858 48.4294 8.00521 48.6729 8.72852C48.9163 9.44466 49.0381 10.2288 49.0381 11.0811V11.3066C49.0381 12.1517 48.9163 12.9359 48.6729 13.6592C48.4294 14.3753 48.0713 15.002 47.5986 15.5391C47.1331 16.069 46.5602 16.4808 45.8799 16.7744C45.1995 17.068 44.4189 17.2148 43.5381 17.2148C42.6572 17.2148 41.873 17.068 41.1855 16.7744C40.5052 16.4808 39.9287 16.069 39.4561 15.5391C38.9906 15.002 38.6361 14.3753 38.3926 13.6592C38.1491 12.9359 38.0273 12.1517 38.0273 11.3066ZM41.1211 11.0811V11.3066C41.1211 11.7936 41.1641 12.2484 41.25 12.6709C41.3359 13.0934 41.472 13.4658 41.6582 13.7881C41.8516 14.1032 42.1022 14.3503 42.4102 14.5293C42.7181 14.7083 43.0941 14.7979 43.5381 14.7979C43.9678 14.7979 44.3366 14.7083 44.6445 14.5293C44.9525 14.3503 45.1995 14.1032 45.3857 13.7881C45.5719 13.4658 45.708 13.0934 45.7939 12.6709C45.887 12.2484 45.9336 11.7936 45.9336 11.3066V11.0811C45.9336 10.6084 45.887 10.1644 45.7939 9.74902C45.708 9.3265 45.5684 8.9541 45.375 8.63184C45.1888 8.30241 44.9417 8.0446 44.6338 7.8584C44.3258 7.6722 43.9535 7.5791 43.5166 7.5791C43.0798 7.5791 42.7074 7.6722 42.3994 7.8584C42.0986 8.0446 41.8516 8.30241 41.6582 8.63184C41.472 8.9541 41.3359 9.3265 41.25 9.74902C41.1641 10.1644 41.1211 10.6084 41.1211 11.0811ZM53.9688 7.8584V17H50.875V5.37695H53.7754L53.9688 7.8584ZM53.5176 10.7803H52.6797C52.6797 9.9209 52.7907 9.14746 53.0127 8.45996C53.2347 7.7653 53.5462 7.17448 53.9473 6.6875C54.3483 6.19336 54.8245 5.81738 55.376 5.55957C55.9346 5.2946 56.5576 5.16211 57.2451 5.16211C57.7894 5.16211 58.2871 5.24089 58.7383 5.39844C59.1895 5.55599 59.5762 5.80664 59.8984 6.15039C60.2279 6.49414 60.4785 6.94889 60.6504 7.51465C60.8294 8.0804 60.9189 8.77148 60.9189 9.58789V17H57.8037V9.57715C57.8037 9.06152 57.7321 8.66048 57.5889 8.37402C57.4456 8.08757 57.2344 7.88704 56.9551 7.77246C56.6829 7.65072 56.3464 7.58984 55.9453 7.58984C55.5299 7.58984 55.1683 7.6722 54.8604 7.83691C54.5596 8.00163 54.3089 8.23079 54.1084 8.52441C53.915 8.81087 53.7682 9.14746 53.668 9.53418C53.5677 9.9209 53.5176 10.3363 53.5176 10.7803Z" fill="#5956E8"/>
<path d="M77.0859 12.9072C77.0859 12.6279 77.043 12.3773 76.957 12.1553C76.8783 11.9261 76.7279 11.7184 76.5059 11.5322C76.2839 11.3389 75.9723 11.1491 75.5713 10.9629C75.1702 10.7767 74.651 10.5833 74.0137 10.3828C73.3047 10.1536 72.6315 9.89583 71.9941 9.60938C71.3639 9.32292 70.8053 8.98991 70.3184 8.61035C69.8385 8.22363 69.459 7.77604 69.1797 7.26758C68.9076 6.75911 68.7715 6.16829 68.7715 5.49512C68.7715 4.84342 68.9147 4.2526 69.2012 3.72266C69.4876 3.18555 69.8887 2.72721 70.4043 2.34766C70.9199 1.96094 71.5286 1.66374 72.2305 1.45605C72.9395 1.24837 73.7165 1.14453 74.5615 1.14453C75.7145 1.14453 76.7207 1.35221 77.5801 1.76758C78.4395 2.18294 79.1055 2.75228 79.5781 3.47559C80.0579 4.19889 80.2979 5.02604 80.2979 5.95703H77.0967C77.0967 5.4987 77 5.09766 76.8066 4.75391C76.6204 4.40299 76.334 4.12728 75.9473 3.92676C75.5677 3.72624 75.0879 3.62598 74.5078 3.62598C73.9492 3.62598 73.4837 3.71191 73.1113 3.88379C72.7389 4.0485 72.4596 4.27409 72.2734 4.56055C72.0872 4.83984 71.9941 5.15495 71.9941 5.50586C71.9941 5.77083 72.0586 6.01074 72.1875 6.22559C72.3236 6.44043 72.5241 6.64095 72.7891 6.82715C73.054 7.01335 73.3799 7.1888 73.7666 7.35352C74.1533 7.51823 74.6009 7.67936 75.1094 7.83691C75.9616 8.09473 76.71 8.38477 77.3545 8.70703C78.0062 9.0293 78.5505 9.39095 78.9873 9.79199C79.4242 10.193 79.7536 10.6478 79.9756 11.1562C80.1976 11.6647 80.3086 12.2412 80.3086 12.8857C80.3086 13.5661 80.1761 14.1748 79.9111 14.7119C79.6462 15.249 79.263 15.7038 78.7617 16.0762C78.2604 16.4486 77.6624 16.7314 76.9678 16.9248C76.2731 17.1182 75.4961 17.2148 74.6367 17.2148C73.8633 17.2148 73.1006 17.1146 72.3486 16.9141C71.5967 16.7064 70.9128 16.3949 70.2969 15.9795C69.6882 15.5641 69.2012 15.0342 68.8359 14.3896C68.4707 13.7451 68.2881 12.9824 68.2881 12.1016H71.5215C71.5215 12.5885 71.5967 13.0003 71.7471 13.3369C71.8975 13.6735 72.1087 13.9456 72.3809 14.1533C72.6602 14.361 72.9896 14.5114 73.3691 14.6045C73.7559 14.6976 74.1784 14.7441 74.6367 14.7441C75.1953 14.7441 75.6536 14.6654 76.0117 14.5078C76.377 14.3503 76.6455 14.1318 76.8174 13.8525C76.9964 13.5732 77.0859 13.2581 77.0859 12.9072ZM88 5.37695V7.56836H81.2324V5.37695H88ZM82.9082 2.50879H86.002V13.498C86.002 13.8346 86.0449 14.0924 86.1309 14.2715C86.224 14.4505 86.36 14.5758 86.5391 14.6475C86.7181 14.7119 86.9437 14.7441 87.2158 14.7441C87.4092 14.7441 87.5811 14.737 87.7314 14.7227C87.889 14.7012 88.0215 14.6797 88.1289 14.6582L88.1396 16.9355C87.8747 17.0215 87.5882 17.0895 87.2803 17.1396C86.9723 17.1898 86.6322 17.2148 86.2598 17.2148C85.5794 17.2148 84.985 17.1038 84.4766 16.8818C83.9753 16.6527 83.5885 16.2874 83.3164 15.7861C83.0443 15.2848 82.9082 14.626 82.9082 13.8096V2.50879ZM96.6367 14.2178V5.37695H99.7305V17H96.8193L96.6367 14.2178ZM96.9805 11.833L97.8936 11.8115C97.8936 12.585 97.804 13.3047 97.625 13.9707C97.446 14.6296 97.1774 15.2025 96.8193 15.6895C96.4613 16.1693 96.0101 16.5452 95.4658 16.8174C94.9215 17.0824 94.2806 17.2148 93.543 17.2148C92.9772 17.2148 92.4544 17.1361 91.9746 16.9785C91.502 16.8138 91.0938 16.5596 90.75 16.2158C90.4134 15.8649 90.1484 15.4173 89.9551 14.873C89.7689 14.3216 89.6758 13.6592 89.6758 12.8857V5.37695H92.7695V12.9072C92.7695 13.251 92.8089 13.541 92.8877 13.7773C92.9736 14.0137 93.0918 14.207 93.2422 14.3574C93.3926 14.5078 93.568 14.6152 93.7686 14.6797C93.9762 14.7441 94.2054 14.7764 94.4561 14.7764C95.0934 14.7764 95.5947 14.6475 95.96 14.3896C96.3324 14.1318 96.5938 13.7809 96.7441 13.3369C96.9017 12.8857 96.9805 12.3844 96.9805 11.833ZM108.958 14.4648V0.5H112.073V17H109.27L108.958 14.4648ZM101.61 11.3281V11.1025C101.61 10.2145 101.711 9.40885 101.911 8.68555C102.112 7.95508 102.405 7.32845 102.792 6.80566C103.179 6.28288 103.655 5.87826 104.221 5.5918C104.786 5.30534 105.431 5.16211 106.154 5.16211C106.835 5.16211 107.429 5.30534 107.938 5.5918C108.453 5.87826 108.89 6.28646 109.248 6.81641C109.613 7.33919 109.907 7.95866 110.129 8.6748C110.351 9.38379 110.512 10.1608 110.612 11.0059V11.5C110.512 12.3092 110.351 13.0612 110.129 13.7559C109.907 14.4505 109.613 15.0592 109.248 15.582C108.89 16.0977 108.453 16.4987 107.938 16.7852C107.422 17.0716 106.82 17.2148 106.133 17.2148C105.41 17.2148 104.765 17.068 104.199 16.7744C103.641 16.4808 103.168 16.069 102.781 15.5391C102.402 15.0091 102.112 14.3861 101.911 13.6699C101.711 12.9538 101.61 12.1732 101.61 11.3281ZM104.704 11.1025V11.3281C104.704 11.8079 104.74 12.2555 104.812 12.6709C104.89 13.0863 105.016 13.4551 105.188 13.7773C105.367 14.0924 105.596 14.3395 105.875 14.5186C106.161 14.6904 106.509 14.7764 106.917 14.7764C107.447 14.7764 107.884 14.6582 108.228 14.4219C108.571 14.1784 108.833 13.8454 109.012 13.4229C109.198 13.0003 109.305 12.5133 109.334 11.9619V10.5547C109.312 10.1035 109.248 9.69889 109.141 9.34082C109.04 8.97559 108.89 8.66406 108.689 8.40625C108.496 8.14844 108.253 7.94792 107.959 7.80469C107.673 7.66146 107.332 7.58984 106.938 7.58984C106.537 7.58984 106.194 7.68294 105.907 7.86914C105.621 8.04818 105.388 8.29525 105.209 8.61035C105.037 8.92546 104.908 9.29785 104.822 9.72754C104.743 10.1501 104.704 10.6084 104.704 11.1025ZM117.756 5.37695V17H114.651V5.37695H117.756ZM114.458 2.34766C114.458 1.89648 114.616 1.52409 114.931 1.23047C115.246 0.936849 115.668 0.790039 116.198 0.790039C116.721 0.790039 117.14 0.936849 117.455 1.23047C117.777 1.52409 117.938 1.89648 117.938 2.34766C117.938 2.79883 117.777 3.17122 117.455 3.46484C117.14 3.75846 116.721 3.90527 116.198 3.90527C115.668 3.90527 115.246 3.75846 114.931 3.46484C114.616 3.17122 114.458 2.79883 114.458 2.34766ZM119.818 11.3066V11.0811C119.818 10.2288 119.94 9.44466 120.184 8.72852C120.427 8.00521 120.782 7.37858 121.247 6.84863C121.713 6.31868 122.285 5.9069 122.966 5.61328C123.646 5.3125 124.427 5.16211 125.308 5.16211C126.188 5.16211 126.973 5.3125 127.66 5.61328C128.348 5.9069 128.924 6.31868 129.39 6.84863C129.862 7.37858 130.22 8.00521 130.464 8.72852C130.707 9.44466 130.829 10.2288 130.829 11.0811V11.3066C130.829 12.1517 130.707 12.9359 130.464 13.6592C130.22 14.3753 129.862 15.002 129.39 15.5391C128.924 16.069 128.351 16.4808 127.671 16.7744C126.991 17.068 126.21 17.2148 125.329 17.2148C124.448 17.2148 123.664 17.068 122.977 16.7744C122.296 16.4808 121.72 16.069 121.247 15.5391C120.782 15.002 120.427 14.3753 120.184 13.6592C119.94 12.9359 119.818 12.1517 119.818 11.3066ZM122.912 11.0811V11.3066C122.912 11.7936 122.955 12.2484 123.041 12.6709C123.127 13.0934 123.263 13.4658 123.449 13.7881C123.643 14.1032 123.893 14.3503 124.201 14.5293C124.509 14.7083 124.885 14.7979 125.329 14.7979C125.759 14.7979 126.128 14.7083 126.436 14.5293C126.743 14.3503 126.991 14.1032 127.177 13.7881C127.363 13.4658 127.499 13.0934 127.585 12.6709C127.678 12.2484 127.725 11.7936 127.725 11.3066V11.0811C127.725 10.6084 127.678 10.1644 127.585 9.74902C127.499 9.3265 127.359 8.9541 127.166 8.63184C126.98 8.30241 126.733 8.0446 126.425 7.8584C126.117 7.6722 125.744 7.5791 125.308 7.5791C124.871 7.5791 124.498 7.6722 124.19 7.8584C123.89 8.0446 123.643 8.30241 123.449 8.63184C123.263 8.9541 123.127 9.3265 123.041 9.74902C122.955 10.1644 122.912 10.6084 122.912 11.0811ZM139.015 13.7881C139.015 13.5661 138.95 13.3656 138.821 13.1865C138.692 13.0075 138.452 12.8428 138.102 12.6924C137.758 12.5348 137.26 12.3916 136.608 12.2627C136.021 12.1338 135.473 11.9727 134.965 11.7793C134.464 11.5788 134.027 11.3389 133.654 11.0596C133.289 10.7803 133.003 10.4508 132.795 10.0713C132.587 9.68457 132.483 9.24414 132.483 8.75C132.483 8.26302 132.587 7.80469 132.795 7.375C133.01 6.94531 133.314 6.56576 133.708 6.23633C134.109 5.89974 134.596 5.63835 135.169 5.45215C135.749 5.25879 136.401 5.16211 137.124 5.16211C138.134 5.16211 139 5.32324 139.724 5.64551C140.454 5.96777 141.013 6.41178 141.399 6.97754C141.793 7.53613 141.99 8.1735 141.99 8.88965H138.896C138.896 8.58887 138.832 8.32031 138.703 8.08398C138.581 7.84049 138.388 7.65072 138.123 7.51465C137.865 7.37142 137.529 7.2998 137.113 7.2998C136.77 7.2998 136.472 7.36068 136.222 7.48242C135.971 7.59701 135.778 7.75456 135.642 7.95508C135.513 8.14844 135.448 8.36328 135.448 8.59961C135.448 8.77865 135.484 8.93978 135.556 9.08301C135.634 9.21908 135.76 9.3444 135.932 9.45898C136.104 9.57357 136.326 9.68099 136.598 9.78125C136.877 9.87435 137.221 9.96029 137.629 10.0391C138.467 10.2109 139.215 10.4365 139.874 10.7158C140.533 10.988 141.056 11.3604 141.442 11.833C141.829 12.2985 142.022 12.9108 142.022 13.6699C142.022 14.1855 141.908 14.6582 141.679 15.0879C141.45 15.5176 141.12 15.8936 140.69 16.2158C140.261 16.5309 139.745 16.778 139.144 16.957C138.549 17.1289 137.88 17.2148 137.135 17.2148C136.053 17.2148 135.137 17.0215 134.385 16.6348C133.64 16.248 133.074 15.7575 132.688 15.1631C132.308 14.5615 132.118 13.9456 132.118 13.3154H135.051C135.065 13.738 135.173 14.0781 135.373 14.3359C135.581 14.5938 135.842 14.7799 136.157 14.8945C136.479 15.0091 136.827 15.0664 137.199 15.0664C137.6 15.0664 137.933 15.0127 138.198 14.9053C138.463 14.7907 138.664 14.6403 138.8 14.4541C138.943 14.2607 139.015 14.0387 139.015 13.7881Z" fill="black"/>
</svg>
