<svg width="603" height="603" viewBox="0 0 603 603" fill="none" xmlns="http://www.w3.org/2000/svg">
<path d="M230.346 445.527L263.119 431.778L258.476 406.874L277.922 423.065L297.218 403.769L302.434 429.306L337.921 423.065L319.771 451.888L329.479 475.676L291.43 456.109L277.681 489.154L268.696 453.185L230.346 445.527Z" fill="#FF4320"/>
<path d="M281.781 485.958C281.751 485.958 281.751 485.958 281.721 485.958C281.54 485.928 281.389 485.777 281.329 485.596L275.269 456.893L239.36 476.129C239.179 476.219 238.968 476.189 238.817 476.038C238.667 475.888 238.636 475.677 238.757 475.496L258.083 442.15L258.867 442.602L240.355 474.561L275.389 455.778C275.51 455.717 275.661 455.717 275.781 455.778C275.902 455.838 275.992 455.958 276.022 456.079L281.962 484.119L298.786 451.195C298.906 450.984 299.147 450.893 299.389 450.984L326.192 463.134L321.127 437.959C321.097 437.808 321.127 437.688 321.217 437.567C321.308 437.446 321.458 437.416 321.579 437.416L343.739 439.044L343.679 439.949L322.122 438.351L327.247 463.797C327.277 463.978 327.217 464.129 327.097 464.25C326.976 464.37 326.795 464.37 326.614 464.31L299.389 451.979L282.203 485.717C282.113 485.867 281.962 485.958 281.781 485.958Z" fill="#121127"/>
<path d="M89.2129 348.353L112.368 337.017L93.1927 333.248L89.2129 310.394L77.2434 337.017L57.7966 323.178L64.0377 342.986L44.8623 349.589L63.0428 355.077L59.3041 379.98L76.761 361.197L99.675 368.523L89.2129 348.353Z" fill="#FF4320"/>
<path d="M51.9778 389.99C51.8572 389.99 51.7668 389.96 51.6763 389.87C51.5256 389.719 51.4954 389.508 51.5859 389.327L71.5753 351.971L42.36 344.494C42.1791 344.434 42.0283 344.283 42.0283 344.072C42.0283 343.861 42.1489 343.68 42.3298 343.62L75.7662 331.56L67.0528 300.083C66.9925 299.902 67.083 299.691 67.2337 299.57C67.4146 299.45 67.6257 299.48 67.7764 299.601L92.5597 320.796L91.9567 321.489L68.3191 301.259L76.731 331.71C76.7913 331.951 76.6707 332.163 76.4596 332.253L44.0182 343.951L72.3592 351.217C72.4798 351.247 72.6004 351.338 72.6607 351.459C72.721 351.579 72.721 351.73 72.6306 351.85L53.1537 388.272L82.4896 370.694L82.9419 371.478L52.219 389.9C52.1286 389.96 52.0381 389.99 51.9778 389.99Z" fill="#121127"/>
<path d="M538.057 84.1788L516.379 98.4096L523.072 103.324C458.822 165.735 361.287 202.789 290.254 216.748L290.435 217.623C333.338 209.181 377.206 194.618 417.336 175.503C438.893 165.252 459.034 153.795 477.214 141.464C494.611 129.675 510.289 117.042 523.856 103.837L531.725 109.595L538.057 84.1788Z" fill="#121127"/>
<path d="M421.768 519.937C419.959 519.937 418.15 519.635 416.371 519.062C408.442 516.469 400.784 508.329 393.608 494.912C388.272 484.933 385.226 475.616 385.196 475.526L386.071 475.254C386.191 475.616 398.281 512.218 416.673 518.248C422.13 520.027 427.678 518.942 433.135 515.022C442.572 508.238 447.155 494.46 447.999 480.018C442.783 477.124 437.597 473.325 432.863 468.893C424.421 460.993 418.572 452.099 417.216 445.044C416.221 439.858 417.608 435.758 421.226 433.165C427.768 428.492 434.28 429.939 439.527 437.296C445.737 445.949 449.446 461.687 448.994 477.425C448.964 478.149 448.933 478.842 448.903 479.536C452.913 481.706 457.074 483.395 461.204 484.42C468.41 486.199 478.48 486.44 485.475 477.576C491.324 470.189 494.098 459.968 493.525 448.119C491.023 447.727 488.701 447.094 486.651 446.341C478.902 443.567 471.365 438.079 465.395 430.934C459.848 424.331 456.2 416.914 455.355 410.613C454.632 405.095 456.049 400.904 459.516 398.493C464.521 394.965 470.762 396.744 477.093 403.467C484.631 411.457 490.842 424.934 493.344 438.622C493.887 441.607 494.249 444.501 494.4 447.335C502.661 448.451 512.882 446.702 523.283 437.115C537.333 424.15 540.74 409.256 538.72 396.171C532.75 398.04 526.389 398.372 520.087 397.106C506.701 394.392 495.274 384.684 494.068 375.006C493.344 369.247 496.48 364.393 502.872 361.318C511.284 357.278 523.012 363.036 531.394 375.367C535.464 381.337 538.177 388.091 539.383 394.965C547.403 392.191 556.298 385.98 563.805 372.986L564.589 373.438C558.77 383.508 551.534 390.593 543.062 394.483C541.916 395.025 540.74 395.478 539.534 395.9C539.986 398.915 540.167 401.93 540.047 404.945C539.504 417.155 533.926 428.522 523.886 437.778C513.304 447.547 502.872 449.356 494.46 448.27C495.003 460.24 492.168 470.641 486.229 478.149C480.44 485.445 471.727 487.917 461.024 485.294C457.104 484.329 453.004 482.701 448.873 480.5C447.848 496.721 442.361 509.444 433.617 515.746C429.728 518.52 425.748 519.937 421.768 519.937ZM428.703 431.326C426.622 431.326 424.301 432.049 421.768 433.858C418.391 436.27 417.185 439.949 418.12 444.833C420.17 455.476 433.014 470.521 448.059 478.993C448.843 463.164 445.225 446.702 438.833 437.778C436.481 434.492 433.074 431.326 428.703 431.326ZM464.943 397.618C463.315 397.618 461.657 398.07 460.059 399.216C456.049 402.02 455.777 406.904 456.26 410.492C457.888 422.612 470.611 439.557 486.983 445.466C488.942 446.19 491.143 446.793 493.525 447.155C493.344 444.441 493.013 441.637 492.5 438.743C490.028 425.205 483.907 411.909 476.49 404.04C473.898 401.327 469.556 397.618 464.943 397.618ZM508.691 360.865C506.761 360.865 504.952 361.257 503.294 362.071C497.173 364.996 494.309 369.428 494.972 374.855C496.118 384.171 507.243 393.518 520.268 396.171C524.158 396.955 530.941 397.618 538.569 395.176C537.303 387.91 534.348 381.247 530.67 375.79C526.841 370.152 522.047 365.659 517.133 363.127C514.208 361.649 511.344 360.865 508.691 360.865Z" fill="#121127"/>
<path d="M563.684 388.633L562.779 388.573L563.714 374.011L549.905 382.121L549.453 381.337L563.985 372.775C564.136 372.684 564.317 372.684 564.438 372.775C564.588 372.865 564.649 373.016 564.649 373.197L563.684 388.633Z" fill="#121127"/>
<path d="M573.875 147.675L533.354 150.358L537.424 156.629L464.672 203.814L478.119 224.497L550.841 177.312L554.911 183.583L573.875 147.675Z" fill="#90ECF4"/>
<path d="M472.27 221.06C472.239 221.06 472.209 221.06 472.179 221.06C472.058 221.03 471.968 220.969 471.908 220.849L458.491 200.166C458.34 199.955 458.401 199.684 458.612 199.533L530.972 152.589L527.143 146.71C527.052 146.589 527.052 146.408 527.112 146.258C527.173 146.107 527.323 146.016 527.474 146.016L567.996 143.333C568.177 143.333 568.327 143.393 568.418 143.544C568.508 143.695 568.508 143.846 568.448 143.996L549.514 179.905C549.454 180.056 549.303 180.146 549.122 180.146C548.971 180.146 548.82 180.086 548.73 179.935L544.901 174.056L472.541 221C472.45 221.03 472.36 221.06 472.27 221.06ZM459.456 200.045L472.39 219.974L544.75 173.031C544.841 172.971 544.961 172.94 545.082 172.971C545.202 173.001 545.293 173.061 545.353 173.182L549.031 178.79L567.242 144.268L528.318 146.831L531.967 152.469C532.027 152.559 532.057 152.68 532.027 152.8C531.997 152.921 531.936 153.011 531.816 153.072L459.456 200.045Z" fill="#121127"/>
<path d="M149.604 456.953L109.052 454.511L112.308 461.235L34.25 498.952L44.9533 521.143L123.042 483.455L126.298 490.179L149.604 456.953Z" fill="#90ECF4"/>
<path d="M39.6469 517.012C39.466 517.012 39.3152 516.922 39.2248 516.771L28.4914 494.55C28.4311 494.43 28.4311 494.309 28.4612 494.219C28.4914 494.098 28.5818 494.008 28.7024 493.947L106.369 456.441L103.324 450.109C103.263 449.959 103.263 449.808 103.354 449.657C103.444 449.506 103.595 449.446 103.746 449.446L144.267 451.888C144.418 451.888 144.569 452.009 144.659 452.129C144.72 452.28 144.72 452.461 144.629 452.582L121.323 485.837C121.233 485.958 121.082 486.048 120.931 486.018C120.781 486.018 120.63 485.897 120.569 485.777L117.524 479.445L39.8579 516.952C39.7976 516.982 39.7072 517.012 39.6469 517.012ZM29.5466 494.55L39.8881 515.957L117.554 478.45C117.765 478.33 118.037 478.45 118.157 478.661L121.082 484.691L143.483 452.732L104.53 450.411L107.454 456.441C107.575 456.652 107.454 456.923 107.243 457.044L29.5466 494.55Z" fill="#121127"/>
<path d="M265.622 89.0028L225.16 85.6562L228.266 92.4701L149.333 128.379L159.554 150.81L238.487 114.902L241.562 121.716L265.622 89.0028Z" fill="#444BD3"/>
<path d="M153.403 146.016C153.342 146.016 153.282 146.016 153.252 145.986C153.131 145.956 153.041 145.866 153.011 145.745L142.79 123.283C142.699 123.042 142.79 122.801 143.001 122.68L221.511 86.9526L218.617 80.5608C218.557 80.4101 218.557 80.2593 218.647 80.1086C218.738 79.988 218.888 79.8975 219.069 79.9277L259.531 83.2743C259.681 83.2743 259.832 83.3949 259.892 83.5457C259.953 83.6964 259.953 83.8773 259.832 83.9979L235.772 116.711C235.682 116.831 235.531 116.922 235.35 116.892C235.2 116.861 235.049 116.771 234.989 116.62L232.094 110.228L153.584 145.956C153.523 145.986 153.463 146.016 153.403 146.016ZM143.785 123.344L153.614 144.961L232.124 109.233C232.245 109.173 232.365 109.173 232.456 109.233C232.577 109.264 232.667 109.354 232.697 109.475L235.471 115.565L258.626 84.1185L219.733 80.8925L222.506 86.9828C222.597 87.224 222.506 87.4652 222.295 87.5858L143.785 123.344Z" fill="#121127"/>
<path d="M142.398 304.334L132.207 274.003L190.397 271.32L142.398 304.334Z" fill="#90ECF4"/>
<path d="M417.727 416.854L390.02 382.061L464.761 350.946L417.727 416.854Z" fill="#444BD3"/>
<path d="M376.603 87.9475L366.714 56.471L426.712 54.9032L376.603 87.9475Z" fill="#FF4320"/>
<path d="M566.668 240.899L555.181 264.174L564.558 265.139C564.136 269.33 560.548 300.083 543.453 339.971C526.569 379.408 492.62 436.09 426.953 482.159C361.256 528.228 290.555 537.364 242.797 536.911C198.597 536.519 165.402 528.047 156.417 525.515C156.87 524.248 157.141 522.861 157.141 521.414C157.141 514.721 151.714 509.294 145.021 509.294C138.327 509.294 132.9 514.721 132.9 521.414C132.9 528.107 138.327 533.534 145.021 533.534C149.935 533.534 154.186 530.58 156.086 526.359C165.01 528.891 198.356 537.394 242.767 537.816C243.883 537.816 245.028 537.846 246.144 537.846C275.419 537.846 303.941 534.318 330.895 527.324C365.9 518.248 398.401 503.294 427.496 482.913C456.591 462.501 481.947 438.351 502.871 411.095C519.604 389.297 533.564 365.478 544.357 340.303C561.452 300.354 565.07 269.511 565.493 265.23L574.085 266.104L566.668 240.899Z" fill="#121127"/>
<path d="M250.516 316.394C250.516 316.394 255.551 331.499 260.857 336.112C264.324 334.755 317.358 314.133 317.358 314.133L370.121 293.691C370.121 293.691 386.16 203.784 365.297 196.88C348.262 191.241 329.931 194.558 310.122 233.662C290.314 272.737 274.937 309.279 250.516 316.394Z" fill="#444BD3"/>
<path d="M264.475 334.695V310.847V308.555C264.324 308.676 264.203 308.796 264.053 308.917V310.847V334.846C264.203 334.786 264.324 334.725 264.475 334.695Z" fill="white"/>
<path d="M290.223 310.846V272.857C290.072 273.129 289.952 273.37 289.801 273.641V310.846V324.836C289.952 324.776 290.072 324.715 290.223 324.685V310.846Z" fill="white"/>
<path d="M277.349 329.66V310.847V294.053C277.198 294.264 277.078 294.445 276.927 294.656V310.847V329.841C277.078 329.781 277.198 329.72 277.349 329.66Z" fill="white"/>
<path d="M303.097 310.847V247.652C302.946 247.923 302.826 248.225 302.675 248.496V310.847V319.831C302.826 319.771 302.946 319.711 303.097 319.68V310.847Z" fill="white"/>
<path d="M315.549 223.683V310.816V314.796C315.7 314.736 315.85 314.676 315.971 314.645V310.847V222.989C315.85 223.231 315.7 223.472 315.549 223.683Z" fill="white"/>
<path d="M251.179 318.294C251.299 318.625 251.45 319.017 251.601 319.439V316.062C251.45 316.123 251.329 316.153 251.179 316.183V318.294Z" fill="white"/>
<path d="M328.423 309.821L328.845 309.671V206.045C328.694 206.196 328.574 206.316 328.423 206.467V309.821Z" fill="white"/>
<path d="M367.045 294.867L367.467 294.716V197.995C367.316 197.905 367.196 197.814 367.045 197.724V294.867Z" fill="white"/>
<path d="M341.297 304.847L341.719 304.696V197.06C341.568 197.121 341.448 197.181 341.297 197.241V304.847Z" fill="white"/>
<path d="M354.171 299.842L354.593 299.691V194.769C354.442 194.769 354.322 194.769 354.171 194.739V299.842Z" fill="white"/>
<path d="M290.736 185C290.736 185 253.651 222.356 247.199 256.034C242.646 279.762 246.204 305.269 250.515 316.364C260.043 315.761 284.645 313.982 297.188 304.425C300.384 302.495 302.705 300.927 302.705 300.927C302.705 300.927 331.046 337.137 388.693 330.263C388.693 330.263 381.367 324.143 382.422 312.716C383.326 303.038 389.989 299.962 389.989 299.962C389.989 299.962 349.287 306.445 320.976 255.431C317.901 249.883 314.795 244.275 312.896 237.612C310.514 229.291 309.218 219.402 303.157 207.281C308.403 203.151 333.368 197.844 349.528 196.005C358.422 194.98 363.759 196.367 363.759 196.367L386.974 179.242L419.265 158.559L410.522 137.152C410.522 137.152 306.414 183.553 300.353 185.362C293.811 187.262 290.736 185 290.736 185Z" fill="#FF4320"/>
<path d="M375.005 331.137C375.246 331.137 375.457 331.137 375.698 331.137V326.525V313.53H382.391C382.391 313.289 382.422 313.078 382.452 312.836H375.698V299.842V299.329C375.457 299.299 375.246 299.239 375.005 299.209V299.842V312.836H362.01H349.015V299.842V287.963C348.774 287.812 348.563 287.631 348.322 287.48V299.842V312.836H335.327H322.333V299.842V286.847H335.327H347.448C347.146 286.636 346.845 286.395 346.543 286.154H335.327H322.333V273.159V260.164H323.78C323.629 259.923 323.508 259.712 323.358 259.471H322.333V257.752C322.091 257.36 321.88 256.968 321.639 256.546V259.471H308.645H295.65V246.476V233.482H308.645H311.871C311.81 233.24 311.75 233.029 311.69 232.788H308.645H295.65V219.794V206.799H304.032C304.393 206.558 304.815 206.347 305.298 206.105H295.65V193.111V186.176C295.409 186.176 295.168 186.176 294.956 186.176V193.111V206.105H281.902H272.796C272.615 206.347 272.434 206.558 272.284 206.799H281.932H294.926V219.794V232.758H281.902H268.907V219.763V211.352C268.666 211.683 268.455 211.985 268.213 212.316V219.763V232.758H255.671C255.55 232.999 255.43 233.21 255.309 233.451H268.183V246.446V259.441H255.189H246.596C246.566 259.682 246.536 259.893 246.475 260.134H255.189H268.183V273.129V286.124H255.189H245.209C245.209 286.365 245.239 286.576 245.239 286.817H255.189H268.183V299.812V312.806H255.189H249.309C249.37 313.047 249.46 313.259 249.52 313.5H255.189H268.183V314.525C268.424 314.495 268.636 314.465 268.877 314.404V313.5H273.851C274.907 313.289 275.962 313.047 277.017 312.806H268.877V299.812V286.817H281.902H294.896V299.812V305.992C295.137 305.842 295.348 305.691 295.59 305.54V299.781V286.787H308.584H321.579V299.781V312.776H315.76C316.061 313.017 316.393 313.228 316.725 313.47H321.579V316.665C321.82 316.816 322.031 316.937 322.272 317.088V313.47H335.267H348.262V326.464V327.881C348.503 327.942 348.714 328.002 348.955 328.062V326.464V313.47H361.95H374.944V326.464V331.137H375.005ZM294.896 273.129V286.124H281.902H268.907V273.129V260.134H281.902H294.896V273.129ZM294.896 246.446V259.441H281.902H268.907V246.446V233.451H281.902H294.896V246.446ZM321.609 273.129V286.124H308.614H295.62V273.129V260.134H308.614H321.609V273.129Z" fill="white"/>
<path d="M401.688 169.775L402.381 169.322V166.307V153.313H415.376H417.155L416.883 152.619H415.406H402.411V140.71C402.2 140.801 401.959 140.921 401.718 141.012V152.589H388.723H375.729V152.529C375.186 152.77 374.613 153.011 374.07 153.252H375.035V166.247V179.242H362.04H349.046V166.247V164.318C348.805 164.408 348.594 164.529 348.352 164.619V166.247V179.242H335.358H322.363V175.986C322.122 176.076 321.911 176.197 321.67 176.287V179.242H314.856C314.313 179.483 313.77 179.694 313.258 179.935H321.67V192.93V200.829C321.911 200.769 322.122 200.709 322.363 200.678V192.93V179.935H335.358H348.352V192.93V196.035C348.594 196.005 348.805 195.975 349.046 195.945V192.93V179.935H362.04H375.035V187.955L375.729 187.443V179.905H385.919L386.854 179.212H375.729V166.217V153.222H388.723H401.718V166.217V169.775H401.688Z" fill="white"/>
<path d="M303.157 207.281C303.157 207.281 313.288 195.674 324.383 193.081C336.684 190.216 344.674 196.94 344.674 196.94C344.674 196.94 323.9 203.301 311.66 230.286C310.303 223.14 303.157 207.281 303.157 207.281Z" fill="#444BD3"/>
<path d="M328.423 207.04C328.574 206.919 328.694 206.799 328.845 206.678V192.447C328.694 192.447 328.574 192.478 328.423 192.478V207.04Z" fill="white"/>
<path d="M341.297 198.327C341.448 198.266 341.568 198.206 341.719 198.116V195.07C341.568 195.01 341.448 194.92 341.297 194.859V198.327Z" fill="white"/>
<path d="M315.549 222.809C315.7 222.567 315.82 222.326 315.971 222.115V196.638C315.82 196.729 315.7 196.819 315.549 196.879V222.809Z" fill="white"/>
<path d="M497.987 239.843C497.987 239.813 497.987 239.813 497.987 239.843C497.957 239.783 497.957 239.723 497.927 239.693C497.897 239.662 497.867 239.632 497.836 239.602C497.836 239.602 497.836 239.602 497.806 239.602C497.776 239.572 497.716 239.542 497.686 239.542C497.625 239.542 497.595 239.512 497.535 239.512C497.505 239.512 497.475 239.512 497.475 239.512L382.844 265.441C384.352 255.551 385.678 245.421 385.678 240.748C385.678 230.648 384.141 212.166 373.799 201.915C371.146 199.292 368.071 197.362 364.604 196.186C375.307 186.206 429.909 151.443 437.567 149.031C439.858 148.308 442.059 147.735 444.169 147.162C450.802 145.383 455.626 144.087 455.415 140.71C455.385 140.228 455.144 139.806 454.722 139.414C454.029 138.841 452.883 138.419 451.345 138.177C453.908 137.062 457.164 134.74 458.883 131.967C460.059 130.097 460.36 128.258 459.817 126.57C459.305 124.942 458.4 123.947 457.194 123.555C456.772 123.434 456.35 123.374 455.928 123.404C460.39 120.389 464.581 117.434 466.903 115.294C468.199 114.088 468.681 112.64 468.169 111.374C467.777 110.379 466.782 109.746 465.666 109.746C459.154 109.836 320.494 172.247 305.63 178.94C305.811 178.458 305.962 177.975 306.082 177.493C306.625 175.141 306.836 170.709 302.314 166.73C304.605 165.343 305.962 159.373 298.696 158.74C291.942 158.137 282.867 165.704 282.385 172.609C281.932 178.85 285.49 182.227 286.636 183.191C285.52 184.186 271.983 196.277 259.35 215.301C245.24 216.929 232.034 218.045 219.763 218.768C222.959 213.281 225.1 207.764 225.552 203.543C226.034 199.292 224.738 196.729 221.904 196.307C218.467 195.794 215.874 198.417 214.788 203.482C213.824 207.884 214.155 213.552 215.542 219.01C202.487 219.673 190.518 219.854 179.573 219.703C181.864 216.417 183.643 213.07 184.759 209.934C186.9 203.874 186.086 199.533 182.468 197.995C180.327 197.091 178.367 197.392 176.829 198.839C173.392 202.095 172.367 210.929 174.026 219.582C158.83 219.191 145.745 218.165 134.74 216.809C135.795 215.392 136.76 213.975 137.574 212.558C141.313 206.075 141.524 200.859 138.147 198.176C136.248 196.668 134.167 196.488 132.087 197.633C127.806 200.015 124.519 207.402 123.765 215.271C121.504 214.909 119.333 214.547 117.313 214.186C107.997 212.497 100.309 210.598 94.1582 208.819C98.5299 200.859 104.078 194.226 104.168 194.106L103.475 193.533C103.052 194.015 97.535 200.618 93.2235 208.548C80.7414 204.839 74.8923 201.613 74.8019 201.553L74.3496 202.337C74.4401 202.397 80.2892 205.623 92.7713 209.362C89.4849 215.603 87.0428 222.537 88.4297 227.964C89.304 231.462 91.716 233.994 95.5752 235.502C97.535 236.286 99.7058 236.647 101.997 236.647C107.153 236.647 113.032 234.718 119.122 230.949C121.052 229.773 122.951 228.416 124.76 226.939C126.841 233.994 131.695 238.909 138.75 240.959C140.77 241.562 142.881 241.833 145.051 241.833C152.046 241.833 159.644 238.788 167.031 232.969C170.046 230.617 172.88 227.844 175.412 224.919C175.473 225.07 175.533 225.251 175.563 225.401C177.402 230.617 181.865 239.512 191.121 240.235C191.513 240.265 191.904 240.296 192.296 240.296C201.311 240.296 210.417 232.366 216.808 223.2C216.989 223.683 217.17 224.165 217.381 224.618C220.547 232.185 225.582 237.612 231.702 240.115L221.663 240.808L221.723 241.713L233.964 240.868C234.114 240.868 234.265 240.778 234.326 240.627C234.386 240.476 234.386 240.326 234.326 240.175L228.808 230.617L228.024 231.07L232.969 239.602C225.371 236.919 220.215 229.924 217.442 222.296C218.045 221.422 218.617 220.517 219.16 219.643C231.914 218.919 245.119 217.773 258.657 216.236C255.822 220.577 253.018 225.311 250.456 230.316C241.893 246.989 237.34 263.662 236.888 279.943C236.677 288.113 237.521 296.163 239.391 304.093L81.9776 345.368C81.7967 345.429 81.6459 345.579 81.6459 345.79C81.6459 346.001 81.7665 346.152 81.9474 346.243L132.449 365.448L152.921 433.346C152.981 433.527 153.162 433.678 153.343 433.678C153.373 433.678 153.373 433.678 153.403 433.678C153.463 433.678 153.524 433.647 153.584 433.587L204.176 399.186L279.581 430.12C279.641 430.15 279.701 430.15 279.762 430.15C279.852 430.15 279.973 430.12 280.033 430.06C341.207 380.192 379.407 349.047 394.151 336.987L394.06 337.379L393.909 337.68C393.94 337.71 394.03 337.74 394.12 337.831C395.055 338.434 397.95 340.303 401.357 340.966C402.14 341.117 402.894 341.208 403.618 341.208C406.964 341.208 409.738 339.64 411.698 336.595C411.999 336.142 412.271 335.69 412.512 335.238C412.572 335.238 412.693 335.238 412.904 335.238C414.502 335.238 420.08 334.876 423.547 330.052C427.014 329.238 431.295 326.464 432.079 317.811C432.441 313.982 430.632 310.696 428.431 308.163L497.867 240.296C497.897 240.265 497.927 240.235 497.957 240.175C497.957 240.175 497.957 240.175 497.957 240.145C497.987 240.115 497.987 240.054 497.987 240.024C498.017 239.934 498.017 239.873 497.987 239.843ZM215.723 203.633C216.627 199.442 218.587 197.121 221.18 197.121C221.391 197.121 221.602 197.151 221.843 197.181C224.768 197.603 225.009 200.799 224.708 203.422C224.225 207.703 221.994 213.341 218.708 218.829C217.954 218.859 217.23 218.919 216.477 218.949C215.03 213.462 214.788 207.945 215.723 203.633ZM177.523 199.472C178.307 198.719 179.211 198.357 180.206 198.357C180.839 198.357 181.503 198.508 182.196 198.809C186.477 200.618 185.151 206.347 184.005 209.603C182.859 212.829 180.96 216.266 178.578 219.643C177.402 219.613 176.196 219.613 175.051 219.582C173.332 211.14 174.237 202.578 177.523 199.472ZM132.599 198.417C133.353 197.995 134.107 197.784 134.831 197.784C135.795 197.784 136.73 198.146 137.665 198.869C140.649 201.221 140.348 206.045 136.881 212.105C136.006 213.613 134.951 215.15 133.775 216.688C130.579 216.296 127.564 215.874 124.73 215.422C125.484 207.462 128.951 200.437 132.599 198.417ZM118.73 230.195C110.198 235.472 102.118 237.069 95.9973 234.657C92.4396 233.271 90.2085 230.919 89.4246 227.723C88.1282 222.537 90.5703 215.723 93.8265 209.603C100.007 211.412 107.756 213.341 117.163 215.03C119.333 215.422 121.534 215.814 123.796 216.145C123.645 218.135 123.675 220.125 123.886 222.085C124.037 223.442 124.278 224.768 124.58 226.004C122.68 227.572 120.72 228.959 118.73 230.195ZM124.76 222.025C124.549 220.125 124.519 218.196 124.64 216.326C127.414 216.748 130.218 217.14 133.082 217.532C130.851 220.306 128.198 222.989 125.333 225.401C125.062 224.165 124.881 223.02 124.76 222.025ZM166.548 232.306C157.081 239.753 147.313 242.527 139.082 240.115C130.61 237.642 127.082 231.492 125.605 226.336C128.801 223.683 131.725 220.698 134.167 217.623C146.71 219.191 160.126 220.155 174.297 220.487C174.538 221.663 174.84 222.809 175.201 223.954C172.608 226.999 169.654 229.864 166.548 232.306ZM175.201 220.547C176.076 220.577 176.98 220.577 177.885 220.608C177.252 221.482 176.588 222.326 175.895 223.17C175.623 222.296 175.412 221.422 175.201 220.547ZM213.311 226.517C209.09 231.642 200.648 240.145 191.301 239.391C182.558 238.698 178.307 230.165 176.528 225.16C176.407 224.829 176.317 224.497 176.196 224.165C177.191 222.989 178.126 221.783 178.97 220.577C181.473 220.608 183.975 220.638 186.508 220.638C195.975 220.638 205.773 220.366 215.813 219.854C216.024 220.638 216.266 221.391 216.537 222.175C215.512 223.683 214.426 225.13 213.311 226.517ZM217.17 221.271C217.019 220.788 216.869 220.306 216.748 219.854C217.2 219.824 217.683 219.794 218.135 219.763C217.803 220.276 217.502 220.758 217.17 221.271ZM485.535 243.13L381.367 274.817C381.789 272.134 382.241 269.3 382.694 266.405L485.535 243.13ZM384.774 240.718C384.774 250.788 378.473 286.606 377.9 289.892L363.759 295.862C357.88 293.42 351.458 289.47 345.247 284.375C349.438 273.913 353.237 243.069 353.418 241.743L352.513 241.622C352.483 241.954 348.624 273.099 344.524 283.742C342.353 281.933 340.242 280.003 338.162 277.953C324.655 264.566 315.308 247.954 311.781 231.16C312.293 230.014 316.213 221.693 323.087 213.462C329.841 205.352 340.906 195.674 355.287 195.583C362.493 195.553 368.523 197.874 373.196 202.487C383.267 212.558 384.774 230.768 384.774 240.718ZM343.559 196.88C332.826 195.854 314.916 209.512 309.58 222.356C307.771 216.085 305.751 211.171 303.671 207.342C305.178 205.593 315.972 193.744 327.7 193.05C337.891 192.447 342.504 195.553 343.86 196.759C343.77 196.819 343.649 196.849 343.559 196.88ZM392.643 141.162C398.1 138.75 403.527 136.368 408.834 134.077L418.753 158.348C413.597 161.483 407.929 165.041 402.472 168.539L392.643 141.162ZM456.983 124.399C457.888 124.67 458.581 125.514 459.003 126.811C459.456 128.258 459.184 129.796 458.159 131.454C456.049 134.861 451.315 137.605 449.084 137.936C448.692 137.936 448.3 137.906 447.908 137.906C446.672 137.695 445.587 136.881 445.134 135.796C444.622 134.559 445.134 133.263 446.551 132.238C449.868 129.826 452.28 129.193 452.28 129.193L452.069 128.318C451.978 128.349 449.476 128.982 446.009 131.514C444.26 132.781 443.627 134.529 444.29 136.157C444.592 136.911 445.134 137.544 445.798 137.997C445.345 138.027 444.863 138.057 444.381 138.117C440.612 138.539 438.501 137.725 438.109 136.73C437.838 136.067 438.32 135.162 439.496 134.258C440.401 133.534 443.054 131.846 446.401 129.675C448.511 128.318 450.833 126.811 453.184 125.243C454.059 124.731 455.657 123.977 456.983 124.399ZM465.727 110.62C466.48 110.59 467.114 111.012 467.385 111.676C467.747 112.58 467.355 113.666 466.33 114.6C463.586 117.133 458.129 120.901 452.732 124.459C452.34 124.7 452.069 124.881 452.039 124.911C449.928 126.298 447.818 127.655 445.918 128.891C442.541 131.062 439.888 132.811 438.954 133.534C436.903 135.132 437.054 136.429 437.295 137.062C437.959 138.66 440.702 139.414 444.501 138.992C445.707 138.871 446.823 138.811 447.848 138.78C448.089 138.811 448.33 138.841 448.571 138.841C448.752 138.841 448.933 138.841 449.114 138.811C451.707 138.931 453.456 139.414 454.179 140.017C454.421 140.228 454.541 140.439 454.571 140.65C454.722 143.303 449.988 144.569 443.989 146.167C441.969 146.71 439.647 147.343 437.356 148.067C434.763 148.881 427.828 152.77 419.537 157.805L409.678 133.655C438.743 121.022 463.194 110.681 465.727 110.62ZM290.314 173.604C290.977 173.363 292.425 173.151 293.48 175.383C294.837 171.282 299.841 168.147 301.5 167.182C304.816 169.956 306.143 173.513 305.268 177.252C304.364 181.051 301.168 184.518 297.972 185.151C294.595 185.845 291.279 184.85 289.259 184.005C290.917 183.342 291.46 179.875 291.58 179.001C288.626 177.885 287.902 174.508 290.314 173.604ZM251.33 230.798C264.988 204.206 284.706 186.176 287.118 184.036C288.324 184.729 293.088 187.111 298.153 186.086C300.927 185.513 303.61 183.161 305.148 180.176C308.163 178.82 350.493 159.765 390.955 141.946L397.166 171.976C383.9 180.629 368.433 191.241 363.669 195.854C361.136 195.101 358.393 194.709 355.468 194.709C355.408 194.709 355.348 194.709 355.287 194.709C351.579 194.739 348.112 195.372 344.855 196.427C343.891 195.432 339.308 191.483 327.67 192.146C315.881 192.839 305.449 203.965 303.248 206.497C300.897 202.307 298.545 199.472 296.525 197.573C291.369 192.719 287.239 192.628 287.058 192.628V193.533C287.088 193.533 291.098 193.653 295.982 198.327C300.535 202.668 306.806 211.864 310.846 231.22C314.374 248.225 323.871 265.049 337.529 278.616C349.107 290.103 362.553 298.033 372.624 299.299C372.895 299.329 373.166 299.359 373.438 299.39C370.392 301.108 358.996 309.188 365.81 330.233C329.419 327.55 307.831 308.646 295.53 291.189C289.47 281.511 280.787 264.204 274.455 237.13C274.455 237.13 273.641 253.682 279.008 272.888C282.234 284.405 289.982 299.209 296.796 304.183C285.098 310.816 272.556 313.681 263.541 314.917C253.41 316.304 245.662 315.942 244.034 315.821C231.612 282.596 240.386 252.084 251.33 230.798ZM381.94 316.424C382.724 324.173 386.101 328.364 387.638 329.931C382.181 330.444 376.995 330.625 372.051 330.534C370.995 329.117 368.222 324.504 368.252 315.128C368.312 305.028 373.92 300.867 375.94 299.661C380.643 300.143 384.895 300.384 388.784 300.415C386.553 302.465 381.126 308.404 381.94 316.424ZM255.28 337.77C250.606 330.685 247.019 323.66 244.335 316.726C245.149 316.756 246.566 316.816 248.466 316.816C252.054 316.816 257.39 316.635 263.601 315.791C274.123 314.374 289.379 310.726 302.615 301.56C306.866 306.234 311.479 310.394 316.454 313.982L255.28 337.77ZM133.293 364.966C133.233 364.845 133.142 364.755 133.022 364.694L83.6358 345.911L239.662 304.997C241.139 311.027 243.22 316.937 245.903 322.786L133.293 364.966ZM153.855 432.411V378.563L203.15 398.794L153.855 432.411ZM279.641 429.185L154.609 377.9L317.328 314.615C320.766 317.057 324.384 319.228 328.122 321.128C345.217 329.811 365.599 333.067 388.724 330.715C391.558 330.444 397.527 330.926 399.668 331.228C390.261 339.007 285.068 424.753 279.641 429.185ZM431.175 317.691C430.632 323.66 428.25 327.489 424.271 328.846C424.602 328.243 424.934 327.58 425.205 326.886C426.713 322.937 426.773 319.409 425.386 316.424C423.396 312.113 419.145 310.515 418.964 310.455L418.663 311.299C418.693 311.299 422.763 312.836 424.572 316.816C425.838 319.56 425.748 322.846 424.361 326.555C421.587 333.911 414.683 334.303 412.934 334.303C414.08 331.771 414.381 329.328 413.808 326.977C412.572 322.002 407.929 319.319 407.718 319.198L407.266 319.982C407.296 320.012 411.788 322.575 412.904 327.188C413.597 329.992 412.904 332.977 410.914 336.052C408.683 339.489 405.517 340.846 401.477 340.062C398.221 339.429 395.477 337.65 394.573 337.047C394.422 336.956 394.332 336.896 394.271 336.866C398.764 333.188 401.025 331.349 401.055 331.288C401.176 331.137 401.176 330.926 401.085 330.776C400.965 330.595 400.814 330.323 395.99 329.962C394.543 329.841 391.045 329.63 388.874 329.811C388.091 329.117 383.749 325.017 382.875 316.334C381.97 307.409 389.266 301.168 390.201 300.415C408.834 300.294 418.271 295.38 423.909 292.455C427.557 290.556 429.547 289.53 431.567 290.706C433.707 291.973 433.436 293.932 432.863 295.38C431.265 299.269 425.386 303.52 421.527 302.555C421.316 302.495 421.075 302.616 420.984 302.827C420.894 303.038 420.984 303.279 421.195 303.399C421.255 303.46 431.929 309.369 431.175 317.691ZM427.828 307.47C426.17 305.721 424.421 304.394 423.155 303.58C427.225 303.249 432.109 299.42 433.617 295.741C434.642 293.239 434.039 291.189 431.959 289.953C429.517 288.505 427.105 289.772 423.426 291.671C416.341 295.349 403.165 302.224 372.654 298.395C370.242 298.093 367.649 297.4 364.905 296.344L495.485 241.29L427.828 307.47Z" fill="#121127"/>
</svg>
